<?xml version="1.0" encoding="UTF-8"?>
<!DOCTYPE svg PUBLIC "-//W3C//DTD SVG 1.1//EN" "http://www.w3.org/Graphics/SVG/1.1/DTD/svg11.dtd">
<svg xmlns="http://www.w3.org/2000/svg" version="1.1" width="500px" height="500px" style="shape-rendering:geometricPrecision; text-rendering:geometricPrecision; image-rendering:optimizeQuality; fill-rule:evenodd; clip-rule:evenodd" xmlns:xlink="http://www.w3.org/1999/xlink">
<g><path style="opacity:1" fill="#d193e3" d="M 217.5,324.5 C 216.791,325.404 215.791,325.737 214.5,325.5C 161.192,311.692 127.692,278.025 114,224.5C 103.739,168.946 119.905,122.779 162.5,86C 187.547,66.981 215.881,56.6477 247.5,55C 254.078,48.9714 261.411,47.9714 269.5,52C 280.123,61.7738 280.123,71.4404 269.5,81C 260.789,85.3331 253.122,83.9997 246.5,77C 191.244,78.2076 152.41,104.041 130,154.5C 111.709,210.173 123.876,258.006 166.5,298C 181.529,310.505 198.529,319.339 217.5,324.5 Z M 257.5,57.5 C 266.015,57.8439 269.515,62.1772 268,70.5C 264.634,75.609 260.134,76.7757 254.5,74C 249.316,67.5416 250.316,62.0416 257.5,57.5 Z"/></g>
<g><path style="opacity:0.998" fill="#7536d8" d="M 199.5,300.5 C 199.672,301.492 199.338,302.158 198.5,302.5C 163.413,275.633 147.913,239.966 152,195.5C 160.556,142.942 190.389,109.109 241.5,94C 264.884,88.773 288.051,89.6063 311,96.5C 325.737,92.0715 334.57,97.4049 337.5,112.5C 334.837,125.995 326.837,131.162 313.5,128C 307.732,125.737 304.399,121.57 303.5,115.5C 255.453,100.301 214.953,111.634 182,149.5C 155.531,187.312 152.531,226.979 173,268.5C 180.219,280.548 189.052,291.214 199.5,300.5 Z M 316.5,103.5 C 325.658,102.491 329.492,106.491 328,115.5C 323.162,122.995 317.828,123.328 312,116.5C 310.201,111.066 311.701,106.733 316.5,103.5 Z"/></g>
<g><path style="opacity:1" fill="#76bc25" d="M 192.5,267.5 C 192.591,269.698 191.925,270.031 190.5,268.5C 176.875,225.499 186.209,188.332 218.5,157C 257.037,127.175 298.037,123.508 341.5,146C 352.011,152.502 361.344,160.502 369.5,170C 382.907,172.984 388.074,181.151 385,194.5C 378.888,204.737 370.388,207.237 359.5,202C 353.11,196.618 350.61,189.785 352,181.5C 324.24,148.597 289.74,138.764 248.5,152C 210.615,168.747 190.615,197.913 188.5,239.5C 189.046,248.962 190.379,258.296 192.5,267.5 Z M 366.5,178.5 C 375.998,178.818 379.498,183.484 377,192.5C 371.19,198.093 365.856,197.76 361,191.5C 360.333,188.833 360.333,186.167 361,183.5C 362.73,181.598 364.563,179.931 366.5,178.5 Z"/></g>
<g><path style="opacity:0.405" fill="#3c0a1c" d="M 269.5,170.5 C 267.901,170.232 266.568,170.566 265.5,171.5C 261.837,171.048 258.17,170.548 254.5,170C 259.684,169.184 264.684,169.35 269.5,170.5 Z"/></g>
<g><path style="opacity:0.008" fill="#1c070d" d="M 272.5,170.5 C 275.829,170.215 278.829,170.882 281.5,172.5C 278.273,172.324 275.273,171.657 272.5,170.5 Z"/></g>
<g><path style="opacity:0.933" fill="#971146" d="M 265.5,171.5 C 266.568,170.566 267.901,170.232 269.5,170.5C 270.5,170.5 271.5,170.5 272.5,170.5C 275.273,171.657 278.273,172.324 281.5,172.5C 286.55,172.855 291.217,174.188 295.5,176.5C 294.209,176.263 293.209,176.596 292.5,177.5C 283.609,175.027 274.609,173.027 265.5,171.5 Z"/></g>
<g><path style="opacity:1" fill="#d81663" d="M 295.5,176.5 C 325.178,185.852 348.511,203.518 365.5,229.5C 365.427,231.027 366.094,232.027 367.5,232.5C 375.269,243.712 380.602,256.046 383.5,269.5C 383.41,272.152 384.076,274.485 385.5,276.5C 385.5,277.167 385.5,277.833 385.5,278.5C 385.42,281.781 386.087,284.781 387.5,287.5C 391.825,342.332 372.159,386.165 328.5,419C 306.355,433.437 282.022,441.604 255.5,443.5C 251.596,444.785 247.929,446.619 244.5,449C 227.223,450.391 220.057,442.557 223,425.5C 227.721,417.061 234.887,413.894 244.5,416C 247.692,417.094 250.358,418.927 252.5,421.5C 303.547,421.227 341.047,398.561 365,353.5C 388.88,295.196 378.047,244.362 332.5,201C 320.19,191.348 306.857,183.515 292.5,177.5C 293.209,176.596 294.209,176.263 295.5,176.5 Z M 243.5,424.5 C 244.167,425.833 245.167,426.833 246.5,427.5C 249.221,433.385 247.554,437.885 241.5,441C 232.97,441.132 229.47,436.966 231,428.5C 234.03,423.661 238.197,422.327 243.5,424.5 Z"/></g>
<g><path style="opacity:0.912" fill="#431044" d="M 303.5,198.5 C 302.504,198.586 301.671,198.252 301,197.5C 300.536,198.094 300.369,198.761 300.5,199.5C 293.379,193.098 285.379,187.931 276.5,184C 275.304,183.346 275.304,182.846 276.5,182.5C 286.564,186.271 295.564,191.604 303.5,198.5 Z"/></g>
<g><path style="opacity:1" fill="#701571" d="M 303.5,198.5 C 328.63,218.413 343.13,244.413 347,276.5C 350.071,334.206 325.571,375.373 273.5,400C 245.12,410.366 216.453,411.199 187.5,402.5C 172.865,406.492 164.198,401.158 161.5,386.5C 165.028,371.471 174.028,366.637 188.5,372C 192.145,374.958 194.812,378.625 196.5,383C 246.331,398.754 287.498,386.254 320,345.5C 343.983,307.508 345.649,268.508 325,228.5C 318.095,217.763 309.929,208.096 300.5,199.5C 300.369,198.761 300.536,198.094 301,197.5C 301.671,198.252 302.504,198.586 303.5,198.5 Z M 177.5,377.5 C 186.663,379.172 189.496,384.172 186,392.5C 183.005,395.265 179.505,396.098 175.5,395C 170.845,392.103 169.345,387.937 171,382.5C 172.805,380.174 174.972,378.508 177.5,377.5 Z"/></g>
<g><path style="opacity:0.757" fill="#261442" d="M 301.5,215.5 C 300.662,215.842 300.328,216.508 300.5,217.5C 298.526,214.23 296.526,210.897 294.5,207.5C 295.483,206.773 296.483,207.107 297.5,208.5C 298.861,210.85 300.194,213.184 301.5,215.5 Z"/></g>
<g><path style="opacity:0.92" fill="#522797" d="M 301.5,215.5 C 304.088,220.344 306.421,225.344 308.5,230.5C 307.075,228.969 306.409,229.302 306.5,231.5C 304.537,226.897 302.537,222.23 300.5,217.5C 300.328,216.508 300.662,215.842 301.5,215.5 Z"/></g>
<g><path style="opacity:0.998" fill="#7536d8" d="M 308.5,230.5 C 322.225,274.103 312.558,311.603 279.5,343C 241.032,371.813 200.365,375.146 157.5,353C 146.989,346.498 137.656,338.498 129.5,329C 115.693,326.209 110.526,318.042 114,304.5C 118.545,295.752 125.712,292.585 135.5,295C 145.024,299.562 148.857,307.062 147,317.5C 173.809,349.211 207.309,359.377 247.5,348C 287.119,331.686 308.119,302.019 310.5,259C 309.761,249.732 308.427,240.565 306.5,231.5C 306.409,229.302 307.075,228.969 308.5,230.5 Z M 126.5,302.5 C 135.658,301.491 139.492,305.491 138,314.5C 133.123,321.885 127.789,322.218 122,315.5C 120.071,310.016 121.571,305.683 126.5,302.5 Z"/></g>
<g><path style="opacity:0.38" fill="#511026" d="M 365.5,229.5 C 366.906,229.973 367.573,230.973 367.5,232.5C 366.094,232.027 365.427,231.027 365.5,229.5 Z"/></g>
<g><path style="opacity:1" fill="#487219" d="M 192.5,267.5 C 195.77,275.626 199.437,283.626 203.5,291.5C 197.904,284.653 193.571,276.986 190.5,268.5C 191.925,270.031 192.591,269.698 192.5,267.5 Z"/></g>
<g><path style="opacity:0.502" fill="#58102a" d="M 383.5,269.5 C 384.924,271.515 385.59,273.848 385.5,276.5C 384.076,274.485 383.41,272.152 383.5,269.5 Z"/></g>
<g><path style="opacity:0.322" fill="#480e22" d="M 385.5,278.5 C 386.913,281.219 387.58,284.219 387.5,287.5C 386.087,284.781 385.42,281.781 385.5,278.5 Z"/></g>
<g><path style="opacity:0.145" fill="#1f3309" d="M 203.5,291.5 C 204.833,292.167 204.833,292.167 203.5,291.5 Z"/></g>
<g><path style="opacity:0.847" fill="#4b2489" d="M 199.5,300.5 C 203.912,304.254 208.578,307.587 213.5,310.5C 213.5,311.167 213.167,311.5 212.5,311.5C 207.273,309.254 202.606,306.254 198.5,302.5C 199.338,302.158 199.672,301.492 199.5,300.5 Z"/></g>
<g><path style="opacity:0.596" fill="#2b164e" d="M 213.5,310.5 C 217.362,312.262 221.028,314.262 224.5,316.5C 220.213,315.352 216.213,313.685 212.5,311.5C 213.167,311.5 213.5,311.167 213.5,310.5 Z"/></g>
<g><path style="opacity:0.051" fill="#0f071e" d="M 224.5,316.5 C 225.833,317.167 225.833,317.167 224.5,316.5 Z"/></g>
<g><path style="opacity:0.812" fill="#7d5888" d="M 217.5,324.5 C 223.422,325.931 229.422,326.931 235.5,327.5C 235.158,328.338 234.492,328.672 233.5,328.5C 226.853,328.669 220.52,327.669 214.5,325.5C 215.791,325.737 216.791,325.404 217.5,324.5 Z"/></g>
<g><path style="opacity:0.361" fill="#3c2a41" d="M 235.5,327.5 C 238.813,328.045 242.146,328.545 245.5,329C 241.311,329.812 237.311,329.645 233.5,328.5C 234.492,328.672 235.158,328.338 235.5,327.5 Z"/></g>
<g><path style="opacity:0.639" fill="#481323" d="M 243.5,424.5 C 245.5,424.5 246.5,425.5 246.5,427.5C 245.167,426.833 244.167,425.833 243.5,424.5 Z"/></g>
</svg>
